<?xml version="1.0" encoding="UTF-8" standalone="no"?>
<!-- Created with Inkscape (http://www.inkscape.org/) -->

<svg
   width="161.98508mm"
   height="61.476349mm"
   viewBox="0 0 161.98508 61.476349"
   version="1.1"
   id="svg1"
   xml:space="preserve"
   inkscape:version="1.3.2 (091e20e, 2023-11-25, custom)"
   sodipodi:docname="Figure4.svg"
   xmlns:inkscape="http://www.inkscape.org/namespaces/inkscape"
   xmlns:sodipodi="http://sodipodi.sourceforge.net/DTD/sodipodi-0.dtd"
   xmlns="http://www.w3.org/2000/svg"
   xmlns:svg="http://www.w3.org/2000/svg"><sodipodi:namedview
     id="namedview1"
     pagecolor="#ffffff"
     bordercolor="#000000"
     borderopacity="0.25"
     inkscape:showpageshadow="2"
     inkscape:pageopacity="0.0"
     inkscape:pagecheckerboard="0"
     inkscape:deskcolor="#d1d1d1"
     inkscape:document-units="mm"
     inkscape:zoom="1.4142136"
     inkscape:cx="302.99525"
     inkscape:cy="107.83378"
     inkscape:window-width="1680"
     inkscape:window-height="987"
     inkscape:window-x="1672"
     inkscape:window-y="-8"
     inkscape:window-maximized="1"
     inkscape:current-layer="layer1" /><defs
     id="defs1"><rect
       x="8136"
       y="-168"
       width="8520"
       height="3688"
       id="rect116" /><rect
       x="333.75439"
       y="292.74222"
       width="60.104076"
       height="27.930717"
       id="rect44" /><marker
       style="overflow:visible"
       id="DartArrow"
       refX="0"
       refY="0"
       orient="auto-start-reverse"
       inkscape:stockid="Dart arrow"
       markerWidth="1"
       markerHeight="1"
       viewBox="0 0 1 1"
       inkscape:isstock="true"
       inkscape:collect="always"
       preserveAspectRatio="xMidYMid"><path
         style="fill:context-stroke;fill-rule:evenodd;stroke:none"
         d="M 0,0 5,-5 -12.5,0 5,5 Z"
         transform="scale(-0.5)"
         id="path6" /></marker><rect
       x="333.75439"
       y="292.74222"
       width="60.104076"
       height="27.930717"
       id="rect45" /><rect
       x="333.75439"
       y="292.74222"
       width="83.354073"
       height="27.930717"
       id="rect47" /><rect
       x="333.75439"
       y="292.74222"
       width="60.104076"
       height="27.930717"
       id="rect48" /><rect
       x="333.75439"
       y="292.74222"
       width="108.10281"
       height="27.930717"
       id="rect49" /><rect
       x="333.75439"
       y="292.74222"
       width="122.35281"
       height="26.680717"
       id="rect50" /><rect
       x="333.75439"
       y="292.74222"
       width="122.35281"
       height="26.680717"
       id="rect51" /><rect
       x="333.75439"
       y="292.74222"
       width="83.354073"
       height="27.930717"
       id="rect68" /><rect
       x="333.75439"
       y="292.74222"
       width="83.354073"
       height="27.930717"
       id="rect69" /><rect
       x="333.75439"
       y="292.74222"
       width="60.104076"
       height="27.930717"
       id="rect80" /><rect
       x="333.75439"
       y="292.74222"
       width="60.104076"
       height="27.930717"
       id="rect81" /><rect
       x="333.75439"
       y="292.74222"
       width="122.35281"
       height="26.680717"
       id="rect82" /><rect
       x="333.75439"
       y="292.74222"
       width="122.35281"
       height="26.680717"
       id="rect83" /><rect
       x="333.75439"
       y="292.74222"
       width="137.20206"
       height="26.680717"
       id="rect86" /><rect
       x="333.75439"
       y="292.74222"
       width="60.104076"
       height="27.930717"
       id="rect103" /><rect
       x="333.75439"
       y="292.74222"
       width="60.104076"
       height="27.930717"
       id="rect104" /><rect
       x="333.75439"
       y="292.74222"
       width="83.354073"
       height="27.930717"
       id="rect105" /><rect
       x="333.75439"
       y="292.74222"
       width="108.10281"
       height="27.930717"
       id="rect106" /><rect
       x="333.75439"
       y="292.74222"
       width="122.35281"
       height="26.680717"
       id="rect107" /><rect
       x="333.75439"
       y="292.74222"
       width="122.35281"
       height="26.680717"
       id="rect108" /><rect
       x="333.75439"
       y="292.74222"
       width="83.354073"
       height="27.930717"
       id="rect109" /><rect
       x="333.75439"
       y="292.74222"
       width="83.354073"
       height="27.930717"
       id="rect110" /><rect
       x="333.75439"
       y="292.74222"
       width="60.104076"
       height="27.930717"
       id="rect111" /><rect
       x="333.75439"
       y="292.74222"
       width="60.104076"
       height="27.930717"
       id="rect112" /><rect
       x="333.75439"
       y="292.74222"
       width="122.35281"
       height="26.680717"
       id="rect113" /><rect
       x="333.75439"
       y="292.74222"
       width="122.35281"
       height="26.680717"
       id="rect114" /><rect
       x="333.75439"
       y="292.74222"
       width="137.20206"
       height="26.680717"
       id="rect115" /><rect
       x="333.75439"
       y="292.74222"
       width="122.35281"
       height="26.680717"
       id="rect119" /><rect
       x="333.75439"
       y="292.74222"
       width="137.20206"
       height="26.680717"
       id="rect2" /><rect
       x="333.75439"
       y="292.74222"
       width="137.20206"
       height="26.680717"
       id="rect4" /><rect
       x="333.75439"
       y="292.74222"
       width="60.104076"
       height="27.930717"
       id="rect9" /><rect
       x="333.75439"
       y="292.74222"
       width="60.104076"
       height="27.930717"
       id="rect11" /><rect
       x="333.75439"
       y="292.74222"
       width="136.49495"
       height="56.655125"
       id="rect13" /><rect
       x="333.75439"
       y="292.74222"
       width="60.104076"
       height="27.930717"
       id="rect16" /><rect
       x="333.75439"
       y="292.74222"
       width="60.104076"
       height="27.930717"
       id="rect18" /><rect
       x="333.75439"
       y="292.74222"
       width="60.104076"
       height="27.930717"
       id="rect23" /><rect
       x="333.75439"
       y="292.74222"
       width="60.104076"
       height="27.930717"
       id="rect24" /><marker
       style="overflow:visible"
       id="DartArrow-8"
       refX="0"
       refY="0"
       orient="auto-start-reverse"
       inkscape:stockid="Dart arrow"
       markerWidth="1"
       markerHeight="1"
       viewBox="0 0 1 1"
       inkscape:isstock="true"
       inkscape:collect="always"
       preserveAspectRatio="xMidYMid"><path
         style="fill:context-stroke;fill-rule:evenodd;stroke:none"
         d="M 0,0 5,-5 -12.5,0 5,5 Z"
         transform="scale(-0.5)"
         id="path6-8" /></marker></defs><g
     inkscape:label="Camada 1"
     inkscape:groupmode="layer"
     id="layer1"
     transform="translate(-31.726951,-24.759667)"><path
       style="fill:#000000;stroke-width:0.335393"
       d="m 193.70613,51.435305 c -0.99285,-0.228197 -4.33703,-1.068819 -5.25826,-1.530615 -2.76759,-1.387353 -4.82041,-2.849453 -9.55471,-6.805241 -7.14995,-5.974202 -8.69498,-7.065913 -11.14799,-7.877114 -2.26654,-0.749531 -4.86922,-0.782204 -7.29353,-0.09156 -1.44891,0.412769 -4.45538,2.026504 -7.54024,4.047258 -1.32834,0.870132 -3.33785,2.299788 -6.43365,4.577179 -4.66059,3.428522 -7.1888,4.978446 -10.24945,6.283459 -1.78564,0.761364 -4.57714,1.619887 -6.0565,1.86267 -0.37522,0.06158 -0.37714,0.06051 -0.37714,-0.210436 0,-0.211009 0.045,-0.281636 0.19966,-0.313662 5.27224,-1.091425 9.29751,-3.048242 15.28545,-7.43077 0.82971,-0.607265 2.25246,-1.649038 3.16164,-2.31505 4.68537,-3.432196 9.25189,-6.183994 11.48043,-6.918144 1.43788,-0.473681 2.06474,-0.55815 4.12641,-0.556039 1.70297,0.0017 1.99846,0.02443 2.75094,0.211213 3.12206,0.774964 4.77026,1.870921 12.29093,8.172749 4.73518,3.967767 6.88042,5.500622 9.61806,6.872456 0.84443,0.423142 4.13096,1.341994 5.00084,1.413657 z"
       id="path31"
       sodipodi:nodetypes="cssssssssssssssssscc"
       inkscape:export-filename="dominio_montanha.pdf"
       inkscape:export-xdpi="96"
       inkscape:export-ydpi="96" /><path
       style="fill:#4f3434;fill-opacity:0.146341;stroke:none;stroke-width:0.33592;stroke-opacity:1"
       d="m 129.86713,71.738495 c -0.0544,0 0.0348,-19.660993 0.0505,-19.819497 0.0275,-0.276457 0.0374,-0.281872 0.79926,-0.435572 2.66584,-0.537856 5.76327,-1.718584 8.55677,-3.261812 1.60987,-0.889344 4.37988,-2.732555 6.84771,-4.556572 5.92064,-4.376052 9.20461,-6.520148 12.26523,-8.007926 2.01999,-0.981923 3.50747,-1.321793 5.78768,-1.322399 3.34583,-8.35e-4 5.60367,0.890217 9.18835,3.62639 1.27142,0.970476 2.53681,2.00086 5.86598,4.77658 2.34814,1.957783 4.13063,3.380374 5.65722,4.47585 2.215,1.589472 6.24856,3.592145 8.82319,3.613778 l 0.003,20.869046 z"
       id="path1"
       sodipodi:nodetypes="csssssssssccc" /><path
       style="fill:#ffffff;fill-opacity:1;stroke:#000000;stroke-width:0.266295;stroke-linecap:round;stroke-linejoin:round"
       d="m 167.64686,61.73233 h -6.97939 l 0.11108,-0.910973 -0.11108,-1.001756 h 6.97939"
       id="path12"
       sodipodi:nodetypes="ccccc" /><path
       style="fill:#4f3434;fill-opacity:0.146341;stroke:none;stroke-width:0.33592;stroke-opacity:1"
       d="m 32.055642,71.80228 c -0.0544,0 -0.01197,-19.520674 0.0038,-19.679174 0.0275,-0.276457 0.08427,-0.235106 0.846022,-0.388804 2.665854,-0.537854 5.697144,-1.685508 8.490614,-3.228739 1.60988,-0.889343 4.37989,-2.732552 6.84773,-4.556573 5.92063,-4.376054 9.20461,-6.520146 12.26523,-8.007925 2.01998,-0.981923 3.50747,-1.321791 5.78767,-1.322399 5.00723,2.44947 11.09771,1.996907 16.14177,4.369598 2.21501,1.589473 8.61862,-0.188546 10.70232,0.659183 3.98646,1.621867 7.707142,2.254172 14.142592,2.403446 3.28141,0.07612 11.5674,0.409348 13.1224,0.608477 0.75087,0.09615 0.21371,28.86947 0.21694,29.14291 -5.877,-0.158282 -16.37683,-0.04817 -21.511591,0 -6.979741,0.06548 -13.209476,-0.03996 -19.176572,0 -18.381066,0.123134 -32.737427,0.204327 -47.878893,0 z"
       id="path33"
       sodipodi:nodetypes="csssssssssscsscc" /><path
       style="fill:none;fill-opacity:0.146341;fill-rule:nonzero;stroke:#000000;stroke-width:0.595571;stroke-linecap:square;stroke-linejoin:miter;stroke-dasharray:none;stroke-dashoffset:0;stroke-opacity:1"
       d="m 32.090796,51.996193 1.79673,-0.473551 2.18672,-0.598912 2.20062,-0.877466 2.82741,-1.337094 c 0,0 1.99171,-1.183889 2.04742,-1.225674 0.0558,-0.0418 2.28421,-1.559943 2.28421,-1.559943 l 4.93053,-3.454164 3.23132,-2.381701 4.12271,-2.660262 3.41238,-1.796725 1.35103,-0.50141 1.22566,-0.306416 2.06136,-0.250706 0.8914,0.139281 1.83849,0.766047 2.52099,0.724255 2.68812,0.543198 2.42349,0.376061 2.15885,0.445696 1.57387,0.473556 1.82457,0.626762 1.0864,0.48748 0.9471,0.376062 1.75495,0.153204 1.68529,-0.04174 1.62959,-0.0975 1.936,-0.153205 1.37889,0.02787 1.0446,0.181066 c 0,0 0.96103,0.417842 1.01674,0.445696 0.0558,0.02786 2.24243,0.710331 2.24243,0.710331 l 2.1867,0.515343 2.395644,0.376055 2.4792,0.264636 3.03631,0.125349 3.48202,0.08357 3.11989,0.306415 7.3247,0.250705"
       id="path38"
       sodipodi:nodetypes="ccccccccccccccccccccccccccccccccccccccc" /><path
       style="fill:#ffffff;fill-opacity:1;fill-rule:nonzero;stroke:#000000;stroke-width:0.20845;stroke-linecap:square;stroke-linejoin:miter;stroke-dasharray:none;stroke-dashoffset:0;stroke-opacity:1"
       d="m 32.095576,57.839573 62.07946,0.003 v 5.812237 l -62.07946,0.01494"
       id="path39"
       sodipodi:nodetypes="cccc" /><path
       style="fill:none;fill-opacity:0.146341;fill-rule:nonzero;stroke:#000000;stroke-width:0.20845;stroke-linecap:square;stroke-linejoin:miter;stroke-dasharray:none;stroke-dashoffset:0;stroke-opacity:1"
       id="path42"
       sodipodi:type="arc"
       sodipodi:cx="78.059128"
       sodipodi:cy="61.055847"
       sodipodi:rx="1.5863776"
       sodipodi:ry="1.5863776"
       sodipodi:start="5.437012"
       sodipodi:end="5.4251155"
       sodipodi:open="true"
       sodipodi:arc-type="arc"
       d="m 79.110663,59.868048 a 1.5863776,1.5863776 0 0 1 0.139386,2.235797 1.5863776,1.5863776 0 0 1 -2.235373,0.146035 1.5863776,1.5863776 0 0 1 -0.152682,-2.234929 1.5863776,1.5863776 0 0 1 2.234465,-0.159328" /><rect
       style="fill:none;fill-opacity:0.239837;fill-rule:nonzero;stroke:#000000;stroke-width:0.182929;stroke-linecap:round;stroke-linejoin:round;stroke-dasharray:0.731716, 0.731716;stroke-dashoffset:0.12805;stroke-opacity:1"
       id="rect37"
       width="39.047997"
       height="12.117244"
       x="61.21666"
       y="48.960381" /><path
       style="fill:#ffffff;fill-opacity:1;fill-rule:nonzero;stroke:#000000;stroke-width:0.148892;stroke-linecap:square;stroke-linejoin:miter;stroke-dasharray:none;stroke-dashoffset:0;stroke-opacity:1;marker-start:url(#DartArrow);marker-end:url(#DartArrow)"
       d="m 39.737326,58.723455 v 4.094856"
       id="path43"
       sodipodi:nodetypes="cc" /><path
       style="fill:#ffffff;fill-opacity:1;fill-rule:nonzero;stroke:#000000;stroke-width:0.25;stroke-linecap:square;stroke-linejoin:miter;stroke-dasharray:2, 0.5, 0.25, 0.5;stroke-dashoffset:0.025;stroke-opacity:1"
       d="M 78.04904,27.246859 V 85.721887"
       id="path44"
       sodipodi:nodetypes="cc" /><text
       xml:space="preserve"
       transform="matrix(0.26458333,0,0,0.26458333,-47.567295,-18.849184)"
       id="text44"
       style="font-size:15.1862px;font-family:'Times New Roman';-inkscape-font-specification:'Times New Roman, Normal';white-space:pre;shape-inside:url(#rect44);display:inline;fill:#ffffff;fill-opacity:1;fill-rule:nonzero;stroke:#000000;stroke-width:0.944882;stroke-linecap:square;stroke-linejoin:miter;stroke-dasharray:2.76554, 2.76554;stroke-dashoffset:0.48397;stroke-opacity:1"><tspan
         x="333.75391"
         y="306.22178"
         id="tspan46"><tspan
           style="fill:#000000;stroke:none"
           id="tspan45">R</tspan></tspan></text><text
       xml:space="preserve"
       transform="matrix(0.21316218,0,0,0.21316218,-27.661488,-2.2786768)"
       id="text45"
       style="font-size:15.1862px;font-family:'Times New Roman';-inkscape-font-specification:'Times New Roman, Normal';white-space:pre;shape-inside:url(#rect45);display:inline;fill:#ffffff;fill-opacity:1;fill-rule:nonzero;stroke:#000000;stroke-width:0.944882;stroke-linecap:square;stroke-linejoin:miter;stroke-dasharray:2.76554, 2.76554;stroke-dashoffset:0.48397;stroke-opacity:1"><tspan
         x="333.75391"
         y="306.22178"
         id="tspan48"><tspan
           style="fill:#000000;stroke:none"
           id="tspan47">t</tspan></tspan></text><text
       xml:space="preserve"
       transform="matrix(0.26458333,0,0,0.26458333,65.946409,-49.673142)"
       id="text46"
       style="font-size:15.1862px;font-family:'Times New Roman';-inkscape-font-specification:'Times New Roman, Normal';white-space:pre;shape-inside:url(#rect47);display:inline;fill:#ffffff;fill-opacity:1;fill-rule:nonzero;stroke:#000000;stroke-width:0.944882;stroke-linecap:square;stroke-linejoin:miter;stroke-dasharray:2.76554, 2.76554;stroke-dashoffset:0.48397;stroke-opacity:1"><tspan
         x="333.75391"
         y="306.22178"
         id="tspan50"><tspan
           style="fill:#000000;stroke:none"
           id="tspan49">Section A-A'</tspan></tspan></text><text
       xml:space="preserve"
       transform="matrix(0.21316218,0,0,0.21316218,11.033825,-36.013052)"
       id="text47"
       style="font-size:15.1862px;font-family:'Times New Roman';-inkscape-font-specification:'Times New Roman, Normal';white-space:pre;shape-inside:url(#rect48);display:inline;fill:#ffffff;fill-opacity:1;fill-rule:nonzero;stroke:#000000;stroke-width:0.944882;stroke-linecap:square;stroke-linejoin:miter;stroke-dasharray:2.76554, 2.76554;stroke-dashoffset:0.48397;stroke-opacity:1" /><text
       xml:space="preserve"
       transform="matrix(0.26458333,0,0,0.26458333,42.91204,-3.4435216)"
       id="text48"
       style="font-size:15.1862px;font-family:'Times New Roman';-inkscape-font-specification:'Times New Roman, Normal';white-space:pre;shape-inside:url(#rect49);display:inline;fill:#ffffff;fill-opacity:1;fill-rule:nonzero;stroke:#000000;stroke-width:0.944882;stroke-linecap:square;stroke-linejoin:miter;stroke-dasharray:2.76554, 2.76554;stroke-dashoffset:0.48397;stroke-opacity:1"><tspan
         x="333.75391"
         y="306.22178"
         id="tspan52"><tspan
           style="fill:#000000;stroke:none"
           id="tspan51">Twin tunnel</tspan></tspan></text><text
       xml:space="preserve"
       transform="matrix(0.26458333,0,0,0.26458333,-2.7904279,-4.0298195)"
       id="text49"
       style="font-size:15.1862px;font-family:'Times New Roman';-inkscape-font-specification:'Times New Roman, Normal';white-space:pre;shape-inside:url(#rect50);display:inline;fill:#ffffff;fill-opacity:1;fill-rule:nonzero;stroke:#000000;stroke-width:0.944882;stroke-linecap:square;stroke-linejoin:miter;stroke-dasharray:2.76554, 2.76554;stroke-dashoffset:0.48397;stroke-opacity:1"><tspan
         x="333.75391"
         y="306.22178"
         id="tspan54"><tspan
           style="fill:#000000;stroke:none"
           id="tspan53">Transverse gallery</tspan></tspan></text><path
       style="fill:none;fill-opacity:1;fill-rule:nonzero;stroke:#000000;stroke-width:0.15;stroke-linecap:square;stroke-linejoin:miter;stroke-dasharray:none;stroke-dashoffset:0.1275;stroke-opacity:1;marker-start:url(#DartArrow)"
       d="m 79.223113,63.04947 4.381759,15.314573 36.351118,-0.02066"
       id="path50"
       sodipodi:nodetypes="ccc" /><path
       style="fill:none;fill-opacity:1;fill-rule:nonzero;stroke:#000000;stroke-width:0.15;stroke-linecap:square;stroke-linejoin:miter;stroke-dasharray:none;stroke-dashoffset:0.1275;stroke-opacity:1;marker-start:url(#DartArrow-8)"
       d="m 97.853736,60.299859 3.820494,-6.481257 18.48415,-0.02066"
       id="path50-7"
       sodipodi:nodetypes="ccc" /><text
       xml:space="preserve"
       transform="matrix(0.26458333,0,0,0.26458333,-55.743425,-40.67461)"
       id="text50"
       style="font-size:15.1862px;font-family:'Times New Roman';-inkscape-font-specification:'Times New Roman, Normal';white-space:pre;shape-inside:url(#rect51);display:inline;fill:#ffffff;fill-opacity:1;fill-rule:nonzero;stroke:#000000;stroke-width:0.944882;stroke-linecap:square;stroke-linejoin:miter;stroke-dasharray:2.76554, 2.76554;stroke-dashoffset:0.48397;stroke-opacity:1"><tspan
         x="333.75391"
         y="306.22178"
         id="tspan56"><tspan
           style="fill:#000000;stroke:none"
           id="tspan55">Twin tunnel</tspan></tspan></text><path
       style="fill:none;fill-opacity:1;fill-rule:nonzero;stroke:#000000;stroke-width:0.15;stroke-linecap:square;stroke-linejoin:miter;stroke-miterlimit:4.1;stroke-dasharray:none;stroke-dashoffset:0.48189;stroke-opacity:1;marker-end:url(#DartArrow)"
       d="m 32.103842,41.830882 21.2942,0.02066 4.104459,14.960278"
       id="path53"
       sodipodi:nodetypes="ccc" /><path
       style="fill:#000000;fill-opacity:1;fill-rule:nonzero;stroke:#000000;stroke-width:0.15;stroke-linecap:square;stroke-linejoin:miter;stroke-miterlimit:1;stroke-dasharray:none;stroke-dashoffset:0.48189;stroke-opacity:1;paint-order:stroke markers fill"
       d="m 77.258332,30.526302 v -3.274219 3.274219"
       id="path54"
       sodipodi:nodetypes="ccc" /><path
       style="fill:#000000;fill-opacity:1;fill-rule:nonzero;stroke:#000000;stroke-width:0.15;stroke-linecap:square;stroke-linejoin:miter;stroke-miterlimit:1;stroke-dasharray:none;stroke-dashoffset:0.48189;stroke-opacity:1;paint-order:stroke markers fill"
       d="M 77.246639,30.525387 74.330833,28.841589"
       id="path55"
       sodipodi:nodetypes="cc" /><path
       style="fill:#000000;fill-opacity:1;fill-rule:nonzero;stroke:#000000;stroke-width:0.15;stroke-linecap:square;stroke-linejoin:miter;stroke-miterlimit:1;stroke-dasharray:none;stroke-dashoffset:0.48189;stroke-opacity:1;paint-order:stroke markers fill"
       d="M 77.246639,30.525387 74.330833,28.841589"
       id="path58"
       sodipodi:nodetypes="cc" /><path
       style="fill:#000000;fill-opacity:1;fill-rule:nonzero;stroke:#000000;stroke-width:0.15;stroke-linecap:square;stroke-linejoin:miter;stroke-miterlimit:1;stroke-dasharray:none;stroke-dashoffset:0.48189;stroke-opacity:1;paint-order:stroke markers fill"
       d="m 77.258332,27.239642 -2.915805,1.543482"
       id="path59"
       sodipodi:nodetypes="cc" /><path
       style="fill:#000000;fill-opacity:1;fill-rule:nonzero;stroke:#000000;stroke-width:0.15;stroke-linecap:square;stroke-linejoin:miter;stroke-miterlimit:1;stroke-dasharray:none;stroke-dashoffset:0.48189;stroke-opacity:1;paint-order:stroke markers fill"
       d="M 77.246639,30.525387 74.330833,28.841589"
       id="path61"
       sodipodi:nodetypes="cc" /><path
       style="fill:#000000;fill-opacity:1;fill-rule:nonzero;stroke:#000000;stroke-width:0.15;stroke-linecap:square;stroke-linejoin:miter;stroke-miterlimit:1;stroke-dasharray:none;stroke-dashoffset:0.48189;stroke-opacity:1;paint-order:stroke markers fill"
       d="m 74.342527,28.783124 2.915805,-1.543482 -2.915805,1.543482"
       id="path62"
       sodipodi:nodetypes="ccc" /><path
       style="fill:#000000;fill-opacity:1;fill-rule:nonzero;stroke:#000000;stroke-width:0.15;stroke-linecap:square;stroke-linejoin:miter;stroke-miterlimit:1;stroke-dasharray:none;stroke-dashoffset:0.48189;stroke-opacity:1;paint-order:stroke markers fill"
       d="m 77.258332,85.611474 v -3.274219 3.274219"
       id="path63"
       sodipodi:nodetypes="ccc" /><path
       style="fill:#000000;fill-opacity:1;fill-rule:nonzero;stroke:#000000;stroke-width:0.15;stroke-linecap:square;stroke-linejoin:miter;stroke-miterlimit:1;stroke-dasharray:none;stroke-dashoffset:0.48189;stroke-opacity:1;paint-order:stroke markers fill"
       d="M 77.246639,85.623 74.330833,83.939202"
       id="path65"
       sodipodi:nodetypes="cc" /><path
       style="fill:#000000;fill-opacity:1;fill-rule:nonzero;stroke:#000000;stroke-width:0.15;stroke-linecap:square;stroke-linejoin:miter;stroke-miterlimit:1;stroke-dasharray:none;stroke-dashoffset:0.48189;stroke-opacity:1;paint-order:stroke markers fill"
       d="m 77.258332,82.337255 -2.915805,1.543482"
       id="path66"
       sodipodi:nodetypes="cc" /><text
       xml:space="preserve"
       transform="matrix(0.26458333,0,0,0.26458333,-9.426407,5.2148395)"
       id="text68"
       style="font-size:15.1862px;font-family:'Times New Roman';-inkscape-font-specification:'Times New Roman, Normal';white-space:pre;shape-inside:url(#rect68);display:inline;fill:#ffffff;fill-opacity:1;fill-rule:nonzero;stroke:#000000;stroke-width:0.944882;stroke-linecap:square;stroke-linejoin:miter;stroke-dasharray:2.76554, 2.76554;stroke-dashoffset:0.48397;stroke-opacity:1"><tspan
         x="333.75391"
         y="306.22178"
         id="tspan58"><tspan
           style="fill:#000000;stroke:none"
           id="tspan57">A'</tspan></tspan></text><text
       xml:space="preserve"
       transform="matrix(0.26458333,0,0,0.26458333,-8.94397,-52.516606)"
       id="text69"
       style="font-size:15.1862px;font-family:'Times New Roman';-inkscape-font-specification:'Times New Roman, Normal';white-space:pre;shape-inside:url(#rect69);display:inline;fill:#ffffff;fill-opacity:1;fill-rule:nonzero;stroke:#000000;stroke-width:0.944882;stroke-linecap:square;stroke-linejoin:miter;stroke-dasharray:2.76554, 2.76554;stroke-dashoffset:0.48397;stroke-opacity:1"><tspan
         x="333.75391"
         y="306.22178"
         id="tspan60"><tspan
           style="fill:#000000;stroke:none"
           id="tspan59">A</tspan></tspan></text><g
       inkscape:label=""
       transform="translate(62.573933,50.072425)"
       id="g69"><g
   fill="#000000"
   fill-opacity="1"
   id="g2"
   transform="matrix(0.352778,0,0,0.352778,-0.890499,-0.613525)">
    <g
   id="use1"
   transform="translate(1.993,10.161)">
      <path
   d="m 7.90625,-1.859375 h -0.25 c -0.0625,0.3125 -0.125,0.609375 -0.21875,0.875 -0.0625,0.1875 -0.09375,0.28125 -0.796875,0.28125 h -0.9375 C 5.84375,-1.375 6.1875,-1.953125 6.6875,-2.6875 c 0.5625,-0.875 1.109375,-1.75 1.109375,-2.734375 0,-1.65625 -1.578125,-3 -3.578125,-3 -2,0 -3.578125,1.359375 -3.578125,3 0,0.96875 0.546875,1.84375 1.109375,2.703125 0.5,0.78125 0.859375,1.34375 0.984375,2.015625 h -0.9375 C 1.09375,-0.703125 1.0625,-0.796875 1,-0.984375 c -0.09375,-0.25 -0.15625,-0.59375 -0.21875,-0.875 h -0.25 L 0.90625,0 h 1.859375 c 0.265625,0 0.28125,0 0.28125,-0.21875 0,-0.84375 -0.375,-1.890625 -0.625,-2.5 C 2.078125,-3.65625 1.75,-4.53125 1.75,-5.4375 c 0,-1.84375 1.28125,-2.734375 2.46875,-2.734375 1.1875,0 2.46875,0.890625 2.46875,2.734375 0,0.90625 -0.34375,1.796875 -0.671875,2.6875 -0.203125,0.578125 -0.625,1.671875 -0.625,2.515625 C 5.390625,0 5.421875,0 5.6875,0 h 1.84375 z m 0,0"
   id="path69" />
    </g>
  </g>
</g><g
       inkscape:label=""
       transform="translate(145.46212,50.072425)"
       id="g72"><g
   fill="#000000"
   fill-opacity="1"
   id="g71"
   transform="matrix(0.352778,0,0,0.352778,-0.890499,-0.613525)">
    <g
   id="g70"
   transform="translate(1.993,10.161)">
      <path
   d="m 7.90625,-1.859375 h -0.25 c -0.0625,0.3125 -0.125,0.609375 -0.21875,0.875 -0.0625,0.1875 -0.09375,0.28125 -0.796875,0.28125 h -0.9375 C 5.84375,-1.375 6.1875,-1.953125 6.6875,-2.6875 c 0.5625,-0.875 1.109375,-1.75 1.109375,-2.734375 0,-1.65625 -1.578125,-3 -3.578125,-3 -2,0 -3.578125,1.359375 -3.578125,3 0,0.96875 0.546875,1.84375 1.109375,2.703125 0.5,0.78125 0.859375,1.34375 0.984375,2.015625 h -0.9375 C 1.09375,-0.703125 1.0625,-0.796875 1,-0.984375 c -0.09375,-0.25 -0.15625,-0.59375 -0.21875,-0.875 h -0.25 L 0.90625,0 h 1.859375 c 0.265625,0 0.28125,0 0.28125,-0.21875 0,-0.84375 -0.375,-1.890625 -0.625,-2.5 C 2.078125,-3.65625 1.75,-4.53125 1.75,-5.4375 c 0,-1.84375 1.28125,-2.734375 2.46875,-2.734375 1.1875,0 2.46875,0.890625 2.46875,2.734375 0,0.90625 -0.34375,1.796875 -0.671875,2.6875 -0.203125,0.578125 -0.625,1.671875 -0.625,2.515625 C 5.390625,0 5.421875,0 5.6875,0 h 1.84375 z m 0,0"
   id="path70" />
    </g>
  </g>
</g><path
       style="fill:#000000;fill-opacity:1;fill-rule:nonzero;stroke:#000000;stroke-width:0.15;stroke-linecap:square;stroke-linejoin:miter;stroke-dasharray:none;stroke-dashoffset:0.1275;stroke-opacity:1;marker-end:url(#DartArrow)"
       d="m 153.06322,78.387789 3.20057,-14.10657"
       id="path72"
       sodipodi:nodetypes="cc" /><path
       style="fill:#000000;fill-opacity:1;fill-rule:nonzero;stroke:#000000;stroke-width:0.15;stroke-linecap:square;stroke-linejoin:miter;stroke-dasharray:none;stroke-dashoffset:0.48189;stroke-opacity:1"
       d="M 153.06322,78.387789 H 130.11617"
       id="path73"
       sodipodi:nodetypes="cc" /><path
       style="fill:#ffffff;fill-opacity:1;fill-rule:nonzero;stroke:#000000;stroke-width:0.148892;stroke-linecap:square;stroke-linejoin:miter;stroke-dasharray:none;stroke-dashoffset:0;stroke-opacity:1;marker-start:url(#DartArrow)"
       d="m 166.34791,62.652317 v 1.452229"
       id="path74"
       sodipodi:nodetypes="cc" /><path
       style="fill:#ffffff;fill-opacity:1;fill-rule:nonzero;stroke:#000000;stroke-width:0.148892;stroke-linecap:square;stroke-linejoin:miter;stroke-dasharray:none;stroke-dashoffset:0;stroke-opacity:1;marker-start:url(#DartArrow)"
       d="m 166.34791,62.652317 v 1.452229"
       id="path75"
       sodipodi:nodetypes="cc" /><path
       style="fill:#ffffff;fill-opacity:1;fill-rule:nonzero;stroke:#000000;stroke-width:0.148892;stroke-linecap:square;stroke-linejoin:miter;stroke-dasharray:none;stroke-dashoffset:0;stroke-opacity:1;marker-start:url(#DartArrow)"
       d="M 166.34791,58.968764 V 57.516535"
       id="path76"
       sodipodi:nodetypes="cc" /><text
       xml:space="preserve"
       transform="matrix(0.26458333,0,0,0.26458333,76.406681,-24.063023)"
       id="text78"
       style="font-size:15.1862px;font-family:'Times New Roman';-inkscape-font-specification:'Times New Roman, Normal';white-space:pre;shape-inside:url(#rect80);display:inline;fill:#ffffff;fill-opacity:1;fill-rule:nonzero;stroke:#000000;stroke-width:0.944882;stroke-linecap:square;stroke-linejoin:miter;stroke-dasharray:2.76554, 2.76554;stroke-dashoffset:0.48397;stroke-opacity:1"><tspan
         x="333.75391"
         y="306.22178"
         id="tspan62"><tspan
           style="fill:#000000;stroke:none"
           id="tspan61">R</tspan></tspan></text><text
       xml:space="preserve"
       transform="matrix(0.21316218,0,0,0.21316218,96.312488,-7.9602364)"
       id="text80"
       style="font-size:15.1862px;font-family:'Times New Roman';-inkscape-font-specification:'Times New Roman, Normal';white-space:pre;shape-inside:url(#rect81);display:inline;fill:#ffffff;fill-opacity:1;fill-rule:nonzero;stroke:#000000;stroke-width:0.944882;stroke-linecap:square;stroke-linejoin:miter;stroke-dasharray:none;stroke-dashoffset:0.48397;stroke-opacity:1"><tspan
         x="333.75391"
         y="306.22178"
         id="tspan64"><tspan
           style="fill:#000000;stroke:none"
           id="tspan63">g</tspan></tspan></text><path
       style="fill:#ffffff;fill-opacity:1;stroke:#000000;stroke-width:0.266295;stroke-linecap:round;stroke-linejoin:round"
       id="path10"
       sodipodi:type="arc"
       sodipodi:cx="170.40034"
       sodipodi:cy="60.737717"
       sodipodi:rx="2.9073501"
       sodipodi:ry="2.9073501"
       sodipodi:start="5.437012"
       sodipodi:end="5.4251155"
       sodipodi:open="true"
       sodipodi:arc-type="arc"
       d="m 172.32749,58.56084 a 2.9073501,2.9073501 0 0 1 0.25545,4.09754 2.9073501,2.9073501 0 0 1 -4.09676,0.267638 2.9073501,2.9073501 0 0 1 -0.27982,-4.095948 2.9073501,2.9073501 0 0 1 4.0951,-0.292002" /><path
       style="fill:#ffffff;fill-opacity:1;stroke:#000000;stroke-width:0.266295;stroke-linecap:round;stroke-linejoin:round"
       id="path2"
       sodipodi:type="arc"
       sodipodi:cx="157.83661"
       sodipodi:cy="60.737717"
       sodipodi:rx="2.9073501"
       sodipodi:ry="2.9073501"
       sodipodi:start="5.437012"
       sodipodi:end="5.4251155"
       sodipodi:open="true"
       sodipodi:arc-type="arc"
       d="m 159.76376,58.56084 a 2.9073501,2.9073501 0 0 1 0.25545,4.09754 2.9073501,2.9073501 0 0 1 -4.09676,0.267638 2.9073501,2.9073501 0 0 1 -0.27983,-4.095948 2.9073501,2.9073501 0 0 1 4.0951,-0.292002" /><rect
       style="fill:none;fill-opacity:0.239837;fill-rule:nonzero;stroke:#000000;stroke-width:0.131304;stroke-linecap:round;stroke-linejoin:round;stroke-dasharray:0.525214, 0.525214;stroke-dashoffset:0;stroke-opacity:1"
       id="rect31"
       width="20.032663"
       height="12.168868"
       x="144.39456"
       y="48.6371" /><text
       xml:space="preserve"
       transform="matrix(0.18581618,0,0,0.18581618,69.125206,12.975995)"
       id="text82"
       style="font-size:20.8838px;font-family:'Times New Roman';-inkscape-font-specification:'Times New Roman, Normal';white-space:pre;shape-inside:url(#rect82);display:inline;fill:#ffffff;fill-opacity:1;fill-rule:nonzero;stroke:#000000;stroke-width:0.944882;stroke-linecap:square;stroke-linejoin:miter;stroke-dasharray:2.76554, 2.76554;stroke-dashoffset:0.48397;stroke-opacity:1"><tspan
         x="333.75391"
         y="311.27908"
         id="tspan66"><tspan
           style="fill:#000000;stroke:none"
           id="tspan65">Rock mass</tspan></tspan></text><text
       xml:space="preserve"
       transform="matrix(0.18581618,0,0,0.18581618,-28.315061,13.505162)"
       id="text83"
       style="font-size:20.8838px;font-family:'Times New Roman';-inkscape-font-specification:'Times New Roman, Normal';white-space:pre;shape-inside:url(#rect83);display:inline;fill:#ffffff;fill-opacity:1;fill-rule:nonzero;stroke:#000000;stroke-width:0.944882;stroke-linecap:square;stroke-linejoin:miter;stroke-dasharray:2.76554, 2.76554;stroke-dashoffset:0.48397;stroke-opacity:1"><tspan
         x="333.75391"
         y="311.27908"
         id="tspan68"><tspan
           style="fill:#000000;stroke:none"
           id="tspan67">Rock mass</tspan></tspan></text><path
       style="fill:#ffffff;fill-opacity:1;fill-rule:nonzero;stroke:#000000;stroke-width:0.3;stroke-linecap:square;stroke-linejoin:miter;stroke-dasharray:none;stroke-dashoffset:0;stroke-opacity:1;marker-end:url(#DartArrow)"
       d="m 94.284186,61.101613 h 7.885664"
       id="path83"
       sodipodi:nodetypes="cc" /><text
       xml:space="preserve"
       transform="matrix(0.26458333,0,0,0.26458333,-6.4977999,-47.121658)"
       id="text85"
       style="font-size:15.1862px;font-family:'Times New Roman';-inkscape-font-specification:'Times New Roman, Normal';white-space:pre;shape-inside:url(#rect86);display:inline;fill:#ffffff;fill-opacity:1;fill-rule:nonzero;stroke:#000000;stroke-width:0.944882;stroke-linecap:square;stroke-linejoin:miter;stroke-dasharray:2.76554, 2.76554;stroke-dashoffset:0.48397;stroke-opacity:1"><tspan
         x="333.75391"
         y="306.22178"
         id="tspan70"><tspan
           style="fill:#000000;stroke:none"
           id="tspan69">Excavation face</tspan></tspan></text><path
       style="fill:#000000;fill-opacity:1;fill-rule:nonzero;stroke:#000000;stroke-width:0.15;stroke-linecap:square;stroke-linejoin:miter;stroke-dasharray:none;stroke-dashoffset:0.1275;stroke-opacity:1;marker-end:url(#DartArrow)"
       d="M 111.59073,35.627427 94.492162,57.165322"
       id="path85"
       sodipodi:nodetypes="cc" /><path
       style="fill:#000000;fill-opacity:1;fill-rule:nonzero;stroke:#000000;stroke-width:0.15;stroke-linecap:square;stroke-linejoin:miter;stroke-dasharray:none;stroke-dashoffset:0.48189;stroke-opacity:1"
       d="M 111.61672,35.59362 H 81.010533"
       id="path86"
       sodipodi:nodetypes="cc" /><text
       xml:space="preserve"
       transform="scale(0.26458333)"
       id="text115"
       style="font-size:16px;line-height:0px;font-family:'Times New Roman';-inkscape-font-specification:'Times New Roman, Normal';text-align:center;letter-spacing:-0.04px;word-spacing:-0.02px;white-space:pre;shape-inside:url(#rect116);display:inline;fill:#ffffff;stroke:#000000;stroke-width:0.336378;stroke-linejoin:bevel;stroke-miterlimit:7.7;paint-order:markers stroke fill" /><text
       xml:space="preserve"
       transform="matrix(0.26458333,0,0,0.26458333,-56.643513,-53.471658)"
       id="text2"
       style="font-size:15.1862px;font-family:'Times New Roman';-inkscape-font-specification:'Times New Roman, Normal';white-space:pre;shape-inside:url(#rect2);display:inline;fill:#000000;fill-opacity:1;fill-rule:nonzero;stroke:none;stroke-width:0.944882;stroke-linecap:square;stroke-linejoin:miter;stroke-dasharray:none;stroke-dashoffset:0.48397;stroke-opacity:1"><tspan
         x="333.75391"
         y="306.22178"
         id="tspan71">(a)</tspan></text><text
       xml:space="preserve"
       transform="matrix(0.26458333,0,0,0.26458333,41.400801,-53.471658)"
       id="text4"
       style="font-size:15.1862px;font-family:'Times New Roman';-inkscape-font-specification:'Times New Roman, Normal';white-space:pre;shape-inside:url(#rect4);display:inline;fill:#000000;fill-opacity:1;fill-rule:nonzero;stroke:none;stroke-width:0.944882;stroke-linecap:square;stroke-linejoin:miter;stroke-dasharray:none;stroke-dashoffset:0.48397;stroke-opacity:1"><tspan
         x="333.75391"
         y="306.22178"
         id="tspan72">(b)</tspan></text><path
       style="fill:#ffffff;fill-opacity:1;fill-rule:nonzero;stroke:#000000;stroke-width:0.149;stroke-linecap:square;stroke-linejoin:miter;stroke-dasharray:none;stroke-dashoffset:0;stroke-opacity:1;marker-start:url(#DartArrow);marker-end:url(#DartArrow)"
       d="m 158.67705,66.002993 h 10.92507"
       id="path4"
       sodipodi:nodetypes="cc" /><path
       style="fill:#000000;fill-opacity:1;fill-rule:evenodd;stroke:#000000;stroke-width:0.149;stroke-linejoin:bevel;stroke-miterlimit:4.1;stroke-dasharray:none;stroke-opacity:1"
       d="m 157.83662,64.411875 v 3.619111"
       id="path5"
       sodipodi:nodetypes="cc" /><path
       style="fill:#000000;fill-opacity:1;fill-rule:evenodd;stroke:#000000;stroke-width:0.149;stroke-linejoin:bevel;stroke-miterlimit:4.1;stroke-dasharray:none;stroke-opacity:1"
       d="m 170.56969,64.411875 v 3.619111"
       id="path8"
       sodipodi:nodetypes="cc" /><text
       xml:space="preserve"
       transform="matrix(0.26458333,0,0,0.26458333,73.905142,-11.476516)"
       id="text9"
       style="font-size:15.1862px;font-family:'Times New Roman';-inkscape-font-specification:'Times New Roman, Normal';white-space:pre;shape-inside:url(#rect9);display:inline;fill:#ffffff;fill-opacity:1;fill-rule:nonzero;stroke:#000000;stroke-width:0.944882;stroke-linecap:square;stroke-linejoin:miter;stroke-dasharray:2.76554, 2.76554;stroke-dashoffset:0.48397;stroke-opacity:1"><tspan
         x="333.75391"
         y="306.22564"
         id="tspan74"><tspan
           style="font-style:italic;fill:#000000;stroke:none"
           id="tspan73">d</tspan></tspan></text><text
       xml:space="preserve"
       transform="matrix(0.1857694,0,0,0.1857694,102.05281,13.518673)"
       id="text11"
       style="font-size:15.1862px;font-family:'Times New Roman';-inkscape-font-specification:'Times New Roman, Normal';white-space:pre;shape-inside:url(#rect11);display:inline;fill:#ffffff;fill-opacity:1;fill-rule:nonzero;stroke:#000000;stroke-width:1.08421;stroke-linecap:square;stroke-linejoin:miter;stroke-dasharray:none;stroke-dashoffset:0.48397;stroke-opacity:1"><tspan
         x="333.75391"
         y="306.22178"
         id="tspan76"><tspan
           style="fill:#000000;stroke:none"
           id="tspan75">1</tspan></tspan></text><path
       style="fill:#000000;fill-opacity:1;fill-rule:evenodd;stroke:#000000;stroke-width:0.149;stroke-linejoin:bevel;stroke-miterlimit:4.1;stroke-dasharray:none;stroke-opacity:1"
       d="m 174.4488,60.805969 h 6.93354"
       id="path13"
       sodipodi:nodetypes="cc" /><text
       xml:space="preserve"
       transform="matrix(0.26458333,0,0,0.26458333,13.901208,-28.974057)"
       id="text13"
       style="font-size:15.1862px;font-family:'Times New Roman';-inkscape-font-specification:'Times New Roman, Normal';white-space:pre;shape-inside:url(#rect13);display:inline;fill:#ffffff;fill-opacity:1;fill-rule:nonzero;stroke:#000000;stroke-width:0.944882;stroke-linecap:square;stroke-linejoin:miter;stroke-dasharray:2.76554, 2.76554;stroke-dashoffset:0.48397;stroke-opacity:1"><tspan
         x="333.75391"
         y="306.22178"
         id="tspan78"><tspan
           style="fill:#000000;stroke:none"
           id="tspan77">Excavation 
</tspan></tspan><tspan
         x="333.75391"
         y="325.20453"
         id="tspan80"><tspan
           style="fill:#000000;stroke:none"
           id="tspan79">  direction</tspan></tspan></text><path
       style="fill:#ffffff;fill-opacity:1;fill-rule:nonzero;stroke:#000000;stroke-width:0.149;stroke-linecap:square;stroke-linejoin:miter;stroke-dasharray:none;stroke-dashoffset:0;stroke-opacity:1;marker-start:url(#DartArrow);marker-end:url(#DartArrow)"
       d="M 177.64466,35.347178 V 59.793513"
       id="path14"
       sodipodi:nodetypes="cc" /><path
       style="fill:#000000;fill-opacity:1;fill-rule:evenodd;stroke:#000000;stroke-width:0.149;stroke-linejoin:bevel;stroke-miterlimit:4.1;stroke-dasharray:none;stroke-opacity:1"
       d="m 173.44008,34.409216 h 7.94226"
       id="path15" /><g
       id="g1"
       transform="rotate(-0.886079,-366.40905,1053.244)"><text
         xml:space="preserve"
         transform="matrix(0.26458333,0,0,0.26458333,90.835919,-26.42639)"
         id="text16"
         style="font-size:15.1862px;font-family:'Times New Roman';-inkscape-font-specification:'Times New Roman, Normal';white-space:pre;shape-inside:url(#rect16);display:inline;fill:#ffffff;fill-opacity:1;fill-rule:nonzero;stroke:#000000;stroke-width:0.944882;stroke-linecap:square;stroke-linejoin:miter;stroke-dasharray:2.76554, 2.76554;stroke-dashoffset:0.48397;stroke-opacity:1"><tspan
           x="333.75391"
           y="306.22178"
           id="tspan82"><tspan
             style="fill:#000000;stroke:none"
             id="tspan81">H &gt;&gt; R</tspan></tspan></text><text
         xml:space="preserve"
         transform="matrix(0.21316218,0,0,0.21316218,120.12434,-9.9996933)"
         id="text18"
         style="font-size:15.1862px;font-family:'Times New Roman';-inkscape-font-specification:'Times New Roman, Normal';white-space:pre;shape-inside:url(#rect18);display:inline;fill:#ffffff;fill-opacity:1;fill-rule:nonzero;stroke:#000000;stroke-width:0.944882;stroke-linecap:square;stroke-linejoin:miter;stroke-dasharray:2.76554, 2.76554;stroke-dashoffset:0.48397;stroke-opacity:1"><tspan
           x="333.75391"
           y="306.22178"
           id="tspan84"><tspan
             style="fill:#000000;stroke:none"
             id="tspan83">t</tspan></tspan></text></g><path
       style="fill:#000000;fill-opacity:1;fill-rule:evenodd;stroke:#000000;stroke-width:0.149;stroke-linejoin:bevel;stroke-miterlimit:4.1;stroke-dasharray:none;stroke-opacity:1"
       d="M 61.222044,62.069706 V 76.527335"
       id="path19"
       sodipodi:nodetypes="cc" /><path
       style="fill:#ffffff;fill-opacity:1;fill-rule:nonzero;stroke:#000000;stroke-width:0.149;stroke-linecap:square;stroke-linejoin:miter;stroke-dasharray:none;stroke-dashoffset:0;stroke-opacity:1;marker-start:url(#DartArrow);marker-end:url(#DartArrow)"
       d="M 77.161317,74.592129 H 62.078776"
       id="path20"
       sodipodi:nodetypes="cc" /><path
       style="fill:#000000;fill-opacity:1;fill-rule:evenodd;stroke:#000000;stroke-width:0.149;stroke-linejoin:bevel;stroke-miterlimit:4.1;stroke-dasharray:none;stroke-opacity:1"
       d="m 78.141671,72.520748 v 4.006587"
       id="path21"
       sodipodi:nodetypes="cc" /><text
       xml:space="preserve"
       transform="matrix(0.26458333,0,0,0.26458333,-21.047199,-3.1023543)"
       id="text21"
       style="font-size:15.1862px;font-family:'Times New Roman';-inkscape-font-specification:'Times New Roman, Normal';white-space:pre;shape-inside:url(#rect23);display:inline;fill:#ffffff;fill-opacity:1;fill-rule:nonzero;stroke:#000000;stroke-width:0.944882;stroke-linecap:square;stroke-linejoin:miter;stroke-dasharray:2.76554, 2.76554;stroke-dashoffset:0.48397;stroke-opacity:1"><tspan
         x="333.75391"
         y="306.22564"
         id="tspan86"><tspan
           style="font-style:italic;fill:#000000;stroke:none"
           id="tspan85">d</tspan></tspan></text><text
       xml:space="preserve"
       transform="matrix(0.1857694,0,0,0.1857694,7.1004688,21.892835)"
       id="text23"
       style="font-size:15.1862px;font-family:'Times New Roman';-inkscape-font-specification:'Times New Roman, Normal';white-space:pre;shape-inside:url(#rect24);display:inline;fill:#ffffff;fill-opacity:1;fill-rule:nonzero;stroke:#000000;stroke-width:1.08421;stroke-linecap:square;stroke-linejoin:miter;stroke-dasharray:none;stroke-dashoffset:0.48397;stroke-opacity:1"><tspan
         x="333.75391"
         y="306.22178"
         id="tspan88"><tspan
           style="fill:#000000;stroke:none"
           id="tspan87">2</tspan></tspan></text></g></svg>
